<?xml version="1.0" encoding="UTF-8" standalone="no"?>
<svg width="1068px" height="205px" viewBox="0 0 1068 205" version="1.1" xmlns="http://www.w3.org/2000/svg" xmlns:xlink="http://www.w3.org/1999/xlink" xmlns:sketch="http://www.bohemiancoding.com/sketch/ns">
    <!-- Generator: Sketch 3.2.2 (9983) - http://www.bohemiancoding.com/sketch -->
    <title>Group 2</title>
    <desc>Created with Sketch.</desc>
    <defs></defs>
    <g id="Landing-Page" stroke="none" stroke-width="1" fill="none" fill-rule="evenodd" sketch:type="MSPage">
        <g id="Group-2" sketch:type="MSLayerGroup" transform="translate(-5.000000, -10.000000)">
            <g id="Markers" sketch:type="MSShapeGroup">
                <path d="M145.044371,68.0682911 C151.887192,49.7523159 203.826612,9.89454397 203.826612,9.89454397 C203.826612,9.89454397 218.130514,70.774636 211.287692,89.0906113 C204.468631,107.342989 184.118182,117.459767 165.810937,111.649962 C147.503692,105.840157 138.225309,86.3206692 145.044371,68.0682911 L145.044371,68.0682911 L145.044371,68.0682911 Z M157.397488,71.0637684 C153.192004,82.3204615 159.602638,95.4522964 170.562896,98.9305348 C181.523155,102.408773 195.273922,95.5328849 199.455647,84.3397889 C203.661131,73.0830958 198.047272,57.9988609 187.026792,54.5015113 C176.066533,51.0232728 161.602972,59.8070752 157.397488,71.0637684 L157.397488,71.0637684 L157.397488,71.0637684 Z" id="Marker-2" fill="#F68B03" transform="translate(177.973508, 61.592382) rotate(158.000000) translate(-177.973508, -61.592382) "></path>
                <path d="M296.105782,123.346101 C302.948604,105.030125 354.888024,65.1723535 354.888024,65.1723535 C354.888024,65.1723535 369.191925,126.052446 362.349104,144.368421 C355.530042,162.620799 335.179594,172.737576 316.872349,166.927772 C298.565104,161.117967 289.286721,141.598479 296.105782,123.346101 L296.105782,123.346101 L296.105782,123.346101 Z M308.4589,126.341578 C304.253416,137.598271 310.664049,150.730106 321.624308,154.208344 C332.584567,157.686583 346.335334,150.810694 350.517058,139.617598 C354.722542,128.360905 349.108684,113.27667 338.088204,109.779321 C327.127945,106.301082 312.664384,115.084885 308.4589,126.341578 L308.4589,126.341578 L308.4589,126.341578 Z" id="Marker-3" fill="#9822C0" transform="translate(329.034920, 116.870191) rotate(158.000000) translate(-329.034920, -116.870191) "></path>
                <path d="M232.648815,68.2134393 C236.475035,57.971912 265.517386,35.6851131 265.517386,35.6851131 C265.517386,35.6851131 273.51553,69.7267142 269.68931,79.9682415 C265.876376,90.1742079 254.497257,95.8310868 244.260611,92.5824869 C234.023965,89.333887 228.835881,78.4194057 232.648815,68.2134393 L232.648815,68.2134393 L232.648815,68.2134393 Z M239.556162,69.8883849 C237.204631,76.1826569 240.78919,83.5254297 246.917708,85.4703152 C253.046226,87.4152006 260.73508,83.5704915 263.073325,77.3117803 C265.424856,71.0175084 262.285821,62.5830351 256.12363,60.6274635 C249.995111,58.682578 241.907693,63.5941129 239.556162,69.8883849 L239.556162,69.8883849 L239.556162,69.8883849 Z" id="Marker-4" fill="#87C145" transform="translate(251.061412, 64.592382) rotate(158.000000) translate(-251.061412, -64.592382) "></path>
                <path d="M268.633755,80.4154313 C271.436843,72.912488 292.713271,56.5851783 292.713271,56.5851783 C292.713271,56.5851783 298.572711,81.5240565 295.769623,89.0269997 C292.976267,96.5038911 284.639924,100.648121 277.140557,98.2681964 C269.641189,95.888272 265.840399,87.8923226 268.633755,80.4154313 L268.633755,80.4154313 L268.633755,80.4154313 Z M273.694077,81.6424965 C271.971346,86.2536803 274.597393,91.632996 279.087146,93.0578191 C283.576899,94.4826422 289.209753,91.6660082 290.922752,87.0808762 C292.645483,82.4696923 290.345826,76.2905969 285.831405,74.8579451 C281.341652,73.4331219 275.416809,77.0313126 273.694077,81.6424965 L273.694077,81.6424965 L273.694077,81.6424965 Z" id="Marker-5" fill="#4A90E2" transform="translate(282.122824, 77.762644) rotate(158.000000) translate(-282.122824, -77.762644) "></path>
                <path d="M118.905661,140.635747 C123.582888,128.116353 159.084686,100.872641 159.084686,100.872641 C159.084686,100.872641 168.861735,142.485596 164.184508,155.00499 C159.523521,167.480914 145.613518,174.395966 133.100091,170.42483 C120.586664,166.453693 114.244674,153.111671 118.905661,140.635747 L118.905661,140.635747 L118.905661,140.635747 Z M127.349304,142.683225 C124.474758,150.377436 128.856574,159.35335 136.348165,161.730806 C143.839756,164.108263 153.238725,159.408434 156.09703,151.757693 C158.971576,144.063482 155.134374,133.753058 147.60162,131.362538 C140.110029,128.985081 130.223849,134.989014 127.349304,142.683225 L127.349304,142.683225 L127.349304,142.683225 Z" id="Marker-6" fill="#4990E2" transform="translate(141.413490, 136.209312) rotate(158.000000) translate(-141.413490, -136.209312) "></path>
                <path d="M191.587404,137.551008 C195.413623,127.309481 224.455974,105.022682 224.455974,105.022682 C224.455974,105.022682 232.454118,139.064283 228.627899,149.30581 C224.814964,159.511777 213.435845,165.168655 203.199199,161.920056 C192.962553,158.671456 187.77447,147.756974 191.587404,137.551008 L191.587404,137.551008 L191.587404,137.551008 Z M198.49475,139.225954 C196.14322,145.520226 199.727778,152.862998 205.856296,154.807884 C211.984814,156.752769 219.673668,152.90806 222.011914,146.649349 C224.363444,140.355077 221.224409,131.920604 215.062218,129.965032 C208.9337,128.020147 200.846281,132.931682 198.49475,139.225954 L198.49475,139.225954 L198.49475,139.225954 Z" id="Marker-7" fill="#87C145" transform="translate(210.000000, 133.929950) rotate(158.000000) translate(-210.000000, -133.929950) "></path>
                <path d="M204.325769,83.2230638 C206.658607,76.5007962 224.365667,61.8723309 224.365667,61.8723309 C224.365667,61.8723309 229.242118,84.2163374 226.90928,90.9386049 C224.584542,97.6375313 217.646717,101.350557 211.405456,99.2182619 C205.164195,97.0859669 202.001031,89.9219901 204.325769,83.2230638 L204.325769,83.2230638 L204.325769,83.2230638 Z M208.537164,84.3224538 C207.10344,88.4538474 209.288938,93.2734492 213.025482,94.5500206 C216.762027,95.8265919 221.449905,93.3030265 222.875528,89.1949741 C224.309251,85.0635805 222.395388,79.5274154 218.638313,78.2438299 C214.901769,76.9672585 209.970887,80.1910601 208.537164,84.3224538 L208.537164,84.3224538 L208.537164,84.3224538 Z" id="Marker-8" fill="#9822C0" transform="translate(215.551890, 80.846297) rotate(158.000000) translate(-215.551890, -80.846297) "></path>
                <path d="M223.325769,108.223064 C225.658607,101.500796 243.365667,86.8723309 243.365667,86.8723309 C243.365667,86.8723309 248.242118,109.216337 245.90928,115.938605 C243.584542,122.637531 236.646717,126.350557 230.405456,124.218262 C224.164195,122.085967 221.001031,114.92199 223.325769,108.223064 L223.325769,108.223064 L223.325769,108.223064 Z M227.537164,109.322454 C226.10344,113.453847 228.288938,118.273449 232.025482,119.550021 C235.762027,120.826592 240.449905,118.303027 241.875528,114.194974 C243.309251,110.063581 241.395388,104.527415 237.638313,103.24383 C233.901769,101.967259 228.970887,105.19106 227.537164,109.322454 L227.537164,109.322454 L227.537164,109.322454 Z" id="Marker-9" fill="#4A4A4A" transform="translate(234.551890, 105.846297) rotate(158.000000) translate(-234.551890, -105.846297) "></path>
                <path d="M249.648815,130.213439 C253.475035,119.971912 282.517386,97.6851131 282.517386,97.6851131 C282.517386,97.6851131 290.51553,131.726714 286.68931,141.968241 C282.876376,152.174208 271.497257,157.831087 261.260611,154.582487 C251.023965,151.333887 245.835881,140.419406 249.648815,130.213439 L249.648815,130.213439 L249.648815,130.213439 Z M256.556162,131.888385 C254.204631,138.182657 257.78919,145.52543 263.917708,147.470315 C270.046226,149.415201 277.73508,145.570491 280.073325,139.31178 C282.424856,133.017508 279.285821,124.583035 273.12363,122.627463 C266.995111,120.682578 258.907693,125.594113 256.556162,131.888385 L256.556162,131.888385 L256.556162,131.888385 Z" id="Marker-10" fill="#F68B03" transform="translate(268.061412, 126.592382) rotate(158.000000) translate(-268.061412, -126.592382) "></path>
                <path d="M119.325769,83.2230638 C121.658607,76.5007962 139.365667,61.8723309 139.365667,61.8723309 C139.365667,61.8723309 144.242118,84.2163374 141.90928,90.9386049 C139.584542,97.6375313 132.646717,101.350557 126.405456,99.2182619 C120.164195,97.0859669 117.001031,89.9219901 119.325769,83.2230638 L119.325769,83.2230638 L119.325769,83.2230638 Z M123.537164,84.3224538 C122.10344,88.4538474 124.288938,93.2734492 128.025482,94.5500206 C131.762027,95.8265919 136.449905,93.3030265 137.875528,89.1949741 C139.309251,85.0635805 137.395388,79.5274154 133.638313,78.2438299 C129.901769,76.9672585 124.970887,80.1910601 123.537164,84.3224538 L123.537164,84.3224538 L123.537164,84.3224538 Z" id="Marker-11" fill="#87C145" transform="translate(130.551890, 80.846297) rotate(158.000000) translate(-130.551890, -80.846297) "></path>
                <path d="M83.0778819,114.452273 C86.9041014,104.210746 115.946453,81.9239472 115.946453,81.9239472 C115.946453,81.9239472 123.944596,115.965548 120.118377,126.207076 C116.305443,136.413042 104.926323,142.069921 94.6896773,138.821321 C84.4530315,135.572721 79.2649478,124.65824 83.0778819,114.452273 L83.0778819,114.452273 L83.0778819,114.452273 Z M89.9852286,116.127219 C87.6336978,122.421491 91.218256,129.764264 97.3467742,131.709149 C103.475292,133.654035 111.164146,129.809326 113.502392,123.550614 C115.853922,117.256342 112.714887,108.821869 106.552696,106.866298 C100.424178,104.921412 92.3367594,109.832947 89.9852286,116.127219 L89.9852286,116.127219 L89.9852286,116.127219 Z" id="Marker-12" fill="#9822C0" transform="translate(101.490478, 110.831216) rotate(158.000000) translate(-101.490478, -110.831216) "></path>
                <path d="M163.325769,144.223064 C165.658607,137.500796 183.365667,122.872331 183.365667,122.872331 C183.365667,122.872331 188.242118,145.216337 185.90928,151.938605 C183.584542,158.637531 176.646717,162.350557 170.405456,160.218262 C164.164195,158.085967 161.001031,150.92199 163.325769,144.223064 L163.325769,144.223064 L163.325769,144.223064 Z M167.537164,145.322454 C166.10344,149.453847 168.288938,154.273449 172.025482,155.550021 C175.762027,156.826592 180.449905,154.303027 181.875528,150.194974 C183.309251,146.063581 181.395388,140.527415 177.638313,139.24383 C173.901769,137.967259 168.970887,141.19106 167.537164,145.322454 L167.537164,145.322454 L167.537164,145.322454 Z" id="Marker-13" fill="#4A4A4A" transform="translate(174.551890, 141.846297) rotate(158.000000) translate(-174.551890, -141.846297) "></path>
                <path d="M90.6488154,52.2134393 C94.475035,41.971912 123.517386,19.6851131 123.517386,19.6851131 C123.517386,19.6851131 131.51553,53.7267142 127.68931,63.9682415 C123.876376,74.1742079 112.497257,79.8310868 102.260611,76.5824869 C92.023965,73.333887 86.8358814,62.4194057 90.6488154,52.2134393 L90.6488154,52.2134393 L90.6488154,52.2134393 Z M97.5561622,53.8883849 C95.2046314,60.1826569 98.7891896,67.5254297 104.917708,69.4703152 C111.046226,71.4152006 118.73508,67.5704915 121.073325,61.3117803 C123.424856,55.0175084 120.285821,46.5830351 114.12363,44.6274635 C107.995111,42.682578 99.9076929,47.5941129 97.5561622,53.8883849 L97.5561622,53.8883849 L97.5561622,53.8883849 Z" id="Marker-14" fill="#4990E2" transform="translate(109.061412, 48.592382) rotate(158.000000) translate(-109.061412, -48.592382) "></path>
                <path d="M9.39486361,94.8722751 C12.429876,86.7485483 35.466687,69.0703386 35.466687,69.0703386 C35.466687,69.0703386 41.8109296,96.0726265 38.7759172,104.196353 C35.751443,112.291873 26.7253617,116.778991 18.6055069,114.202154 C10.4856521,111.625318 6.37038943,102.967795 9.39486361,94.8722751 L9.39486361,94.8722751 L9.39486361,94.8722751 Z M14.8738704,96.2008661 C13.0086024,101.193573 15.8519255,107.017966 20.7131544,108.560677 C25.5743833,110.103389 31.6732929,107.05371 33.5280227,102.08921 C35.3932907,97.0965031 32.903363,90.4061575 28.0154241,88.8549699 C23.1541952,87.3122588 16.7391385,91.208159 14.8738704,96.2008661 L14.8738704,96.2008661 L14.8738704,96.2008661 Z" id="Marker-3" fill="#4990E2" transform="translate(24.000000, 92.000000) rotate(158.000000) translate(-24.000000, -92.000000) "></path>
                <path d="M61.2707362,139.68484 C64.0738248,132.181896 85.3502522,115.854587 85.3502522,115.854587 C85.3502522,115.854587 91.2096926,140.793465 88.406604,148.296408 C85.6132483,155.773299 77.276905,159.917529 69.7775379,157.537605 C62.2781708,155.15768 58.4773806,147.161731 61.2707362,139.68484 L61.2707362,139.68484 L61.2707362,139.68484 Z M66.3310586,140.911905 C64.6083271,145.523089 67.2343746,150.902404 71.7241272,152.327227 C76.2138799,153.752051 81.8467346,150.935417 83.5597331,146.350285 C85.2824647,141.739101 82.9828075,135.560005 78.4683859,134.127353 C73.9786332,132.70253 68.0537902,136.300721 66.3310586,140.911905 L66.3310586,140.911905 L66.3310586,140.911905 Z" id="Marker-5" fill="#4A4A4A" transform="translate(74.759805, 137.032053) rotate(158.000000) translate(-74.759805, -137.032053) "></path>
                <path d="M26.3616137,139.159913 C29.8296698,129.877071 56.1534349,109.676487 56.1534349,109.676487 C56.1534349,109.676487 63.4028911,140.531534 59.934835,149.814376 C56.4788207,159.064986 46.1648738,164.192337 36.8864563,161.247831 C27.6080387,158.303325 22.9055994,148.410523 26.3616137,139.159913 L26.3616137,139.159913 L26.3616137,139.159913 Z M32.6223799,140.678071 C30.4909704,146.383151 33.7399865,153.038584 39.2948286,154.801413 C44.8496707,156.564242 51.8187891,153.079427 53.9381567,147.40658 C56.0695663,141.7015 53.224369,134.056558 47.6390058,132.284042 C42.0841637,130.521213 34.7537894,134.972991 32.6223799,140.678071 L32.6223799,140.678071 L32.6223799,140.678071 Z" id="Marker-5" fill="#F68B03" transform="translate(43.050650, 135.877814) rotate(158.000000) translate(-43.050650, -135.877814) "></path>
                <path d="M41.017269,81.1580088 C45.6944961,68.6386149 81.1962943,41.3949033 81.1962943,41.3949033 C81.1962943,41.3949033 90.9733429,83.0078583 86.2961158,95.5272522 C81.635129,108.003176 67.7251256,114.918228 55.2116989,110.947092 C42.6982721,106.975955 36.3562822,93.6339326 41.017269,81.1580088 L41.017269,81.1580088 L41.017269,81.1580088 Z M49.4609114,83.2054869 C46.5863655,90.8996978 50.9681823,99.8756115 58.4597733,102.253068 C65.9513643,104.630525 75.3503327,99.9306956 78.2086382,92.2799549 C81.0831841,84.5857441 77.2459815,74.2753197 69.7132279,71.8848001 C62.2216368,69.5073434 52.3354573,75.5112761 49.4609114,83.2054869 L49.4609114,83.2054869 L49.4609114,83.2054869 Z" id="Marker-6" fill="#4A4A4A" transform="translate(63.525098, 76.731574) rotate(158.000000) translate(-63.525098, -76.731574) "></path>
                <path d="M18.2861129,43.0938642 C20.9281153,36.0220955 40.981842,20.6330737 40.981842,20.6330737 C40.981842,20.6330737 46.5045556,44.1387796 43.8625532,51.2105483 C41.2297244,58.2577622 33.372449,62.1638338 26.3040509,59.9206775 C19.2356529,57.6775211 15.6532841,50.1410781 18.2861129,43.0938642 L18.2861129,43.0938642 L18.2861129,43.0938642 Z M23.0556318,44.2504132 C21.4319012,48.5966043 23.9070365,53.6667847 28.1387748,55.009727 C32.3705131,56.3526693 37.6796623,53.6978998 39.2942194,49.3762634 C40.91795,45.0300722 38.7504482,39.2060733 34.4954585,37.8557522 C30.2637202,36.51281 24.6793624,39.904222 23.0556318,44.2504132 L23.0556318,44.2504132 L23.0556318,44.2504132 Z" id="Marker-10" fill="#87C145" transform="translate(31.000000, 40.593526) rotate(158.000000) translate(-31.000000, -40.593526) "></path>
            </g>
            <g id="Markers-2" transform="translate(924.000000, 93.500000) scale(-1, 1) translate(-924.000000, -93.500000) translate(769.000000, 9.000000)" sketch:type="MSShapeGroup">
                <path d="M73.0443705,68.0682911 C79.887192,49.7523159 131.826612,9.89454397 131.826612,9.89454397 C131.826612,9.89454397 146.130514,70.774636 139.287692,89.0906113 C132.468631,107.342989 112.118182,117.459767 93.8109371,111.649962 C75.5036918,105.840157 66.2253089,86.3206692 73.0443705,68.0682911 L73.0443705,68.0682911 L73.0443705,68.0682911 Z M85.3974882,71.0637684 C81.1920042,82.3204615 87.6026377,95.4522964 98.5628964,98.9305348 C109.523155,102.408773 123.273922,95.5328849 127.455647,84.3397889 C131.661131,73.0830958 126.047272,57.9988609 115.026792,54.5015113 C104.066533,51.0232728 89.6029722,59.8070752 85.3974882,71.0637684 L85.3974882,71.0637684 L85.3974882,71.0637684 Z" id="Marker-2" fill="#87C145" transform="translate(105.973508, 61.592382) rotate(158.000000) translate(-105.973508, -61.592382) "></path>
                <path d="M224.105782,114.346101 C230.948604,96.0301254 282.888024,56.1723535 282.888024,56.1723535 C282.888024,56.1723535 297.191925,117.052446 290.349104,135.368421 C283.530042,153.620799 263.179594,163.737576 244.872349,157.927772 C226.565104,152.117967 217.286721,132.598479 224.105782,114.346101 L224.105782,114.346101 L224.105782,114.346101 Z M236.4589,117.341578 C232.253416,128.598271 238.664049,141.730106 249.624308,145.208344 C260.584567,148.686583 274.335334,141.810694 278.517058,130.617598 C282.722542,119.360905 277.108684,104.27667 266.088204,100.779321 C255.127945,97.3010824 240.664384,106.084885 236.4589,117.341578 L236.4589,117.341578 L236.4589,117.341578 Z" id="Marker-3" fill="#4990E2" transform="translate(257.034920, 107.870191) rotate(158.000000) translate(-257.034920, -107.870191) "></path>
                <path d="M160.648815,59.2134393 C164.475035,48.971912 193.517386,26.6851131 193.517386,26.6851131 C193.517386,26.6851131 201.51553,60.7267142 197.68931,70.9682415 C193.876376,81.1742079 182.497257,86.8310868 172.260611,83.5824869 C162.023965,80.333887 156.835881,69.4194057 160.648815,59.2134393 L160.648815,59.2134393 L160.648815,59.2134393 Z M167.556162,60.8883849 C165.204631,67.1826569 168.78919,74.5254297 174.917708,76.4703152 C181.046226,78.4152006 188.73508,74.5704915 191.073325,68.3117803 C193.424856,62.0175084 190.285821,53.5830351 184.12363,51.6274635 C177.995111,49.682578 169.907693,54.5941129 167.556162,60.8883849 L167.556162,60.8883849 L167.556162,60.8883849 Z" id="Marker-4" fill="#9822C0" transform="translate(179.061412, 55.592382) rotate(158.000000) translate(-179.061412, -55.592382) "></path>
                <path d="M196.633755,71.4154313 C199.436843,63.912488 220.713271,47.5851783 220.713271,47.5851783 C220.713271,47.5851783 226.572711,72.5240565 223.769623,80.0269997 C220.976267,87.5038911 212.639924,91.6481207 205.140557,89.2681964 C197.641189,86.888272 193.840399,78.8923226 196.633755,71.4154313 L196.633755,71.4154313 L196.633755,71.4154313 Z M201.694077,72.6424965 C199.971346,77.2536803 202.597393,82.632996 207.087146,84.0578191 C211.576899,85.4826422 217.209753,82.6660082 218.922752,78.0808762 C220.645483,73.4696923 218.345826,67.2905969 213.831405,65.8579451 C209.341652,64.4331219 203.416809,68.0313126 201.694077,72.6424965 L201.694077,72.6424965 L201.694077,72.6424965 Z" id="Marker-5" fill="#4A4A4A" transform="translate(210.122824, 68.762644) rotate(158.000000) translate(-210.122824, -68.762644) "></path>
                <path d="M46.9056611,131.635747 C51.5828882,119.116353 87.0846864,91.8726413 87.0846864,91.8726413 C87.0846864,91.8726413 96.8617351,133.485596 92.1845079,146.00499 C87.5235211,158.480914 73.6135177,165.395966 61.100091,161.42483 C48.5866642,157.453693 42.2446743,144.111671 46.9056611,131.635747 L46.9056611,131.635747 L46.9056611,131.635747 Z M55.3493035,133.683225 C52.4747576,141.377436 56.8565744,150.35335 64.3481654,152.730806 C71.8397564,155.108263 81.2387248,150.408434 84.0970303,142.757693 C86.9715762,135.063482 83.1343736,124.753058 75.60162,122.362538 C68.1100289,119.985081 58.2238494,125.989014 55.3493035,133.683225 L55.3493035,133.683225 L55.3493035,133.683225 Z" id="Marker-6" fill="#4A90E2" transform="translate(69.413490, 127.209312) rotate(158.000000) translate(-69.413490, -127.209312) "></path>
                <path d="M119.587404,128.551008 C123.413623,118.309481 152.455974,96.0226818 152.455974,96.0226818 C152.455974,96.0226818 160.454118,130.064283 156.627899,140.30581 C152.814964,150.511777 141.435845,156.168655 131.199199,152.920056 C120.962553,149.671456 115.77447,138.756974 119.587404,128.551008 L119.587404,128.551008 L119.587404,128.551008 Z M126.49475,130.225954 C124.14322,136.520226 127.727778,143.862998 133.856296,145.807884 C139.984814,147.752769 147.673668,143.90806 150.011914,137.649349 C152.363444,131.355077 149.224409,122.920604 143.062218,120.965032 C136.9337,119.020147 128.846281,123.931682 126.49475,130.225954 L126.49475,130.225954 L126.49475,130.225954 Z" id="Marker-7" fill="#4A4A4A" transform="translate(138.000000, 124.929950) rotate(158.000000) translate(-138.000000, -124.929950) "></path>
                <path d="M132.325769,74.2230638 C134.658607,67.5007962 152.365667,52.8723309 152.365667,52.8723309 C152.365667,52.8723309 157.242118,75.2163374 154.90928,81.9386049 C152.584542,88.6375313 145.646717,92.350557 139.405456,90.2182619 C133.164195,88.0859669 130.001031,80.9219901 132.325769,74.2230638 L132.325769,74.2230638 L132.325769,74.2230638 Z M136.537164,75.3224538 C135.10344,79.4538474 137.288938,84.2734492 141.025482,85.5500206 C144.762027,86.8265919 149.449905,84.3030265 150.875528,80.1949741 C152.309251,76.0635805 150.395388,70.5274154 146.638313,69.2438299 C142.901769,67.9672585 137.970887,71.1910601 136.537164,75.3224538 L136.537164,75.3224538 L136.537164,75.3224538 Z" id="Marker-8" fill="#4A90E2" transform="translate(143.551890, 71.846297) rotate(158.000000) translate(-143.551890, -71.846297) "></path>
                <path d="M151.325769,99.2230638 C153.658607,92.5007962 171.365667,77.8723309 171.365667,77.8723309 C171.365667,77.8723309 176.242118,100.216337 173.90928,106.938605 C171.584542,113.637531 164.646717,117.350557 158.405456,115.218262 C152.164195,113.085967 149.001031,105.92199 151.325769,99.2230638 L151.325769,99.2230638 L151.325769,99.2230638 Z M155.537164,100.322454 C154.10344,104.453847 156.288938,109.273449 160.025482,110.550021 C163.762027,111.826592 168.449905,109.303027 169.875528,105.194974 C171.309251,101.063581 169.395388,95.5274154 165.638313,94.2438299 C161.901769,92.9672585 156.970887,96.1910601 155.537164,100.322454 L155.537164,100.322454 L155.537164,100.322454 Z" id="Marker-9" fill="#4A4A4A" transform="translate(162.551890, 96.846297) rotate(158.000000) translate(-162.551890, -96.846297) "></path>
                <path d="M177.648815,121.213439 C181.475035,110.971912 210.517386,88.6851131 210.517386,88.6851131 C210.517386,88.6851131 218.51553,122.726714 214.68931,132.968241 C210.876376,143.174208 199.497257,148.831087 189.260611,145.582487 C179.023965,142.333887 173.835881,131.419406 177.648815,121.213439 L177.648815,121.213439 L177.648815,121.213439 Z M184.556162,122.888385 C182.204631,129.182657 185.78919,136.52543 191.917708,138.470315 C198.046226,140.415201 205.73508,136.570491 208.073325,130.31178 C210.424856,124.017508 207.285821,115.583035 201.12363,113.627463 C194.995111,111.682578 186.907693,116.594113 184.556162,122.888385 L184.556162,122.888385 L184.556162,122.888385 Z" id="Marker-10" fill="#F68B03" transform="translate(196.061412, 117.592382) rotate(158.000000) translate(-196.061412, -117.592382) "></path>
                <path d="M47.325769,74.2230638 C49.658607,67.5007962 67.3656669,52.8723309 67.3656669,52.8723309 C67.3656669,52.8723309 72.2421181,75.2163374 69.9092801,81.9386049 C67.5845423,88.6375313 60.6467173,92.350557 54.4054561,90.2182619 C48.1641948,88.0859669 45.0010312,80.9219901 47.325769,74.2230638 L47.325769,74.2230638 L47.325769,74.2230638 Z M51.5371637,75.3224538 C50.1034403,79.4538474 52.2889379,84.2734492 56.0254824,85.5500206 C59.762027,86.8265919 64.4499049,84.3030265 65.8755281,80.1949741 C67.3092514,76.0635805 65.3953885,70.5274154 61.6383134,69.2438299 C57.9017689,67.9672585 52.970887,71.1910601 51.5371637,75.3224538 L51.5371637,75.3224538 L51.5371637,75.3224538 Z" id="Marker-11" fill="#F68B03" transform="translate(58.551890, 71.846297) rotate(158.000000) translate(-58.551890, -71.846297) "></path>
                <path d="M11.0778819,105.452273 C14.9041014,95.2107461 43.9464526,72.9239472 43.9464526,72.9239472 C43.9464526,72.9239472 51.9445962,106.965548 48.1183767,117.207076 C44.3054426,127.413042 32.9263231,133.069921 22.6896773,129.821321 C12.4530315,126.572721 7.2649478,115.65824 11.0778819,105.452273 L11.0778819,105.452273 L11.0778819,105.452273 Z M17.9852286,107.127219 C15.6336978,113.421491 19.218256,120.764264 25.3467742,122.709149 C31.4752924,124.654035 39.1641464,120.809326 41.5023917,114.550614 C43.8539225,108.256342 40.7148875,99.8218692 34.5526961,97.8662976 C28.4241778,95.9214121 20.3367594,100.832947 17.9852286,107.127219 L17.9852286,107.127219 L17.9852286,107.127219 Z" id="Marker-12" fill="#9822C0" transform="translate(29.490478, 101.831216) rotate(158.000000) translate(-29.490478, -101.831216) "></path>
                <path d="M91.325769,143.223064 C93.658607,136.500796 111.365667,121.872331 111.365667,121.872331 C111.365667,121.872331 116.242118,144.216337 113.90928,150.938605 C111.584542,157.637531 104.646717,161.350557 98.4054561,159.218262 C92.1641948,157.085967 89.0010312,149.92199 91.325769,143.223064 L91.325769,143.223064 L91.325769,143.223064 Z M95.5371637,144.322454 C94.1034403,148.453847 96.2889379,153.273449 100.025482,154.550021 C103.762027,155.826592 108.449905,153.303027 109.875528,149.194974 C111.309251,145.063581 109.395388,139.527415 105.638313,138.24383 C101.901769,136.967259 96.970887,140.19106 95.5371637,144.322454 L95.5371637,144.322454 L95.5371637,144.322454 Z" id="Marker-13" fill="#4A4A4A" transform="translate(102.551890, 140.846297) rotate(158.000000) translate(-102.551890, -140.846297) "></path>
                <path d="M18.6488154,45.2134393 C22.475035,34.971912 51.5173862,12.6851131 51.5173862,12.6851131 C51.5173862,12.6851131 59.5155298,46.7267142 55.6893103,56.9682415 C51.8763762,67.1742079 40.4972567,72.8310868 30.2606109,69.5824869 C20.023965,66.333887 14.8358814,55.4194057 18.6488154,45.2134393 L18.6488154,45.2134393 L18.6488154,45.2134393 Z M25.5561622,46.8883849 C23.2046314,53.1826569 26.7891896,60.5254297 32.9177078,62.4703152 C39.046226,64.4152006 46.73508,60.5704915 49.0733253,54.3117803 C51.424856,48.0175084 48.2858211,39.5830351 42.1236297,37.6274635 C35.9951114,35.682578 27.9076929,40.5941129 25.5561622,46.8883849 L25.5561622,46.8883849 L25.5561622,46.8883849 Z" id="Marker-14" fill="#4A4A4A" transform="translate(37.061412, 41.592382) rotate(158.000000) translate(-37.061412, -41.592382) "></path>
            </g>
            <g id="Markers-3" transform="translate(656.000000, 109.000000) scale(-1, 1) translate(-656.000000, -109.000000) translate(498.000000, 0.000000)" sketch:type="MSShapeGroup">
                <path d="M86.0443705,68.0682911 C92.887192,49.7523159 144.826612,9.89454397 144.826612,9.89454397 C144.826612,9.89454397 159.130514,70.774636 152.287692,89.0906113 C145.468631,107.342989 125.118182,117.459767 106.810937,111.649962 C88.5036918,105.840157 79.2253089,86.3206692 86.0443705,68.0682911 L86.0443705,68.0682911 L86.0443705,68.0682911 Z M98.3974882,71.0637684 C94.1920042,82.3204615 100.602638,95.4522964 111.562896,98.9305348 C122.523155,102.408773 136.273922,95.5328849 140.455647,84.3397889 C144.661131,73.0830958 139.047272,57.9988609 128.026792,54.5015113 C117.066533,51.0232728 102.602972,59.8070752 98.3974882,71.0637684 L98.3974882,71.0637684 L98.3974882,71.0637684 Z" id="Marker-2" fill="#F68B03" transform="translate(118.973508, 61.592382) rotate(158.000000) translate(-118.973508, -61.592382) "></path>
                <path d="M174.51057,163.175838 C181.353391,144.859863 233.292811,105.002091 233.292811,105.002091 C233.292811,105.002091 247.596713,165.882183 240.753891,184.198158 C233.93483,202.450536 213.584381,212.567314 195.277136,206.757509 C176.969891,200.947704 167.691508,181.428216 174.51057,163.175838 L174.51057,163.175838 L174.51057,163.175838 Z M186.863687,166.171315 C182.658203,177.428008 189.068837,190.559843 200.029096,194.038082 C210.989354,197.51632 224.740122,190.640432 228.921846,179.447336 C233.12733,168.190643 227.513471,153.106408 216.492991,149.609058 C205.532733,146.13082 191.069171,154.914622 186.863687,166.171315 L186.863687,166.171315 L186.863687,166.171315 Z" id="Marker-3" fill="#9822C0" transform="translate(207.439707, 156.699928) rotate(158.000000) translate(-207.439707, -156.699928) "></path>
                <path d="M188.648815,68.2134393 C192.475035,57.971912 221.517386,35.6851131 221.517386,35.6851131 C221.517386,35.6851131 229.51553,69.7267142 225.68931,79.9682415 C221.876376,90.1742079 210.497257,95.8310868 200.260611,92.5824869 C190.023965,89.333887 184.835881,78.4194057 188.648815,68.2134393 L188.648815,68.2134393 L188.648815,68.2134393 Z M195.556162,69.8883849 C193.204631,76.1826569 196.78919,83.5254297 202.917708,85.4703152 C209.046226,87.4152006 216.73508,83.5704915 219.073325,77.3117803 C221.424856,71.0175084 218.285821,62.5830351 212.12363,60.6274635 C205.995111,58.682578 197.907693,63.5941129 195.556162,69.8883849 L195.556162,69.8883849 L195.556162,69.8883849 Z" id="Marker-4" fill="#4990E2" transform="translate(207.061412, 64.592382) rotate(158.000000) translate(-207.061412, -64.592382) "></path>
                <path d="M224.633755,80.4154313 C227.436843,72.912488 248.713271,56.5851783 248.713271,56.5851783 C248.713271,56.5851783 254.572711,81.5240565 251.769623,89.0269997 C248.976267,96.5038911 240.639924,100.648121 233.140557,98.2681964 C225.641189,95.888272 221.840399,87.8923226 224.633755,80.4154313 L224.633755,80.4154313 L224.633755,80.4154313 Z M229.694077,81.6424965 C227.971346,86.2536803 230.597393,91.632996 235.087146,93.0578191 C239.576899,94.4826422 245.209753,91.6660082 246.922752,87.0808762 C248.645483,82.4696923 246.345826,76.2905969 241.831405,74.8579451 C237.341652,73.4331219 231.416809,77.0313126 229.694077,81.6424965 L229.694077,81.6424965 L229.694077,81.6424965 Z" id="Marker-5" fill="#87C145" transform="translate(238.122824, 77.762644) rotate(158.000000) translate(-238.122824, -77.762644) "></path>
                <path d="M236.471042,123.751522 C239.27413,116.248578 260.550558,99.9212688 260.550558,99.9212688 C260.550558,99.9212688 266.409998,124.860147 263.606909,132.36309 C260.813554,139.839982 252.47721,143.984211 244.977843,141.604287 C237.478476,139.224362 233.677686,131.228413 236.471042,123.751522 L236.471042,123.751522 L236.471042,123.751522 Z M241.531364,124.978587 C239.808632,129.589771 242.43468,134.969086 246.924433,136.39391 C251.414185,137.818733 257.04704,135.002099 258.760038,130.416967 C260.48277,125.805783 258.183113,119.626687 253.668691,118.194036 C249.178939,116.769212 243.254095,120.367403 241.531364,124.978587 L241.531364,124.978587 L241.531364,124.978587 Z" id="Marker-5" fill="#4A4A4A" transform="translate(249.960110, 121.098735) rotate(158.000000) translate(-249.960110, -121.098735) "></path>
                <path d="M40.8442493,102.850032 C45.5214765,90.3306377 81.0232746,63.0869261 81.0232746,63.0869261 C81.0232746,63.0869261 90.8003233,104.699881 86.1230961,117.219275 C81.4621093,129.695199 67.552106,136.610251 55.0386792,132.639115 C42.5252525,128.667978 36.1832625,115.325955 40.8442493,102.850032 L40.8442493,102.850032 L40.8442493,102.850032 Z M49.2878918,104.89751 C46.4133459,112.591721 50.7951626,121.567634 58.2867536,123.945091 C65.7783447,126.322548 75.1773131,121.622718 78.0356186,113.971978 C80.9101644,106.277767 77.0729618,95.9673425 69.5402082,93.5768229 C62.0486172,91.1993662 52.1624376,97.2032989 49.2878918,104.89751 L49.2878918,104.89751 L49.2878918,104.89751 Z" id="Marker-6" fill="#9822C0" transform="translate(63.352078, 98.423597) rotate(158.000000) translate(-63.352078, -98.423597) "></path>
                <path d="M135.123717,120.491249 C138.949937,110.249722 167.992288,87.9629226 167.992288,87.9629226 C167.992288,87.9629226 175.990432,122.004524 172.164212,132.246051 C168.351278,142.452017 156.972159,148.108896 146.735513,144.860296 C136.498867,141.611697 131.310783,130.697215 135.123717,120.491249 L135.123717,120.491249 L135.123717,120.491249 Z M142.031064,122.166194 C139.679533,128.460466 143.264091,135.803239 149.39261,137.748125 C155.521128,139.69301 163.209982,135.848301 165.548227,129.58959 C167.899758,123.295318 164.760723,114.860845 158.598532,112.905273 C152.470013,110.960388 144.382595,115.871922 142.031064,122.166194 L142.031064,122.166194 L142.031064,122.166194 Z" id="Marker-7" fill="#87C145" transform="translate(153.536314, 116.870191) rotate(158.000000) translate(-153.536314, -116.870191) "></path>
                <path d="M161.464203,79.0542794 C163.797041,72.3320118 181.504101,57.7035466 181.504101,57.7035466 C181.504101,57.7035466 186.380552,80.047553 184.047714,86.7698206 C181.722977,93.468747 174.785152,97.1817726 168.54389,95.0494776 C162.302629,92.9171826 159.139465,85.7532058 161.464203,79.0542794 L161.464203,79.0542794 L161.464203,79.0542794 Z M165.675598,80.1536694 C164.241875,84.285063 166.427372,89.1046648 170.163917,90.3812362 C173.900461,91.6578076 178.588339,89.1342422 180.013962,85.0261898 C181.447686,80.8947961 179.533823,75.358631 175.776748,74.0750455 C172.040203,72.7984742 167.109321,76.0222758 165.675598,80.1536694 L165.675598,80.1536694 L165.675598,80.1536694 Z" id="Marker-8" fill="#4A4A4A" transform="translate(172.690324, 76.677513) rotate(158.000000) translate(-172.690324, -76.677513) "></path>
                <path d="M255.958114,61.1394107 C258.290952,54.4171432 275.998012,39.7886779 275.998012,39.7886779 C275.998012,39.7886779 280.874463,62.1326843 278.541625,68.8549519 C276.216888,75.5538783 269.279063,79.2669039 263.037801,77.1346089 C256.79654,75.0023139 253.633377,67.8383371 255.958114,61.1394107 L255.958114,61.1394107 L255.958114,61.1394107 Z M260.169509,62.2388007 C258.735786,66.3701943 260.921283,71.1897962 264.657828,72.4663675 C268.394372,73.7429389 273.08225,71.2193735 274.507873,67.1113211 C275.941597,62.9799275 274.027734,57.4437624 270.270659,56.1601769 C266.534114,54.8836055 261.603232,58.1074071 260.169509,62.2388007 L260.169509,62.2388007 L260.169509,62.2388007 Z" id="Marker-9" fill="#4A4A4A" transform="translate(267.184235, 58.762644) rotate(158.000000) translate(-267.184235, -58.762644) "></path>
                <path d="M267.608926,108.552486 C271.435145,98.3109591 300.477496,76.0241601 300.477496,76.0241601 C300.477496,76.0241601 308.47564,110.065761 304.64942,120.307289 C300.836486,130.513255 289.457367,136.170134 279.220721,132.921534 C268.984075,129.672934 263.795992,118.758453 267.608926,108.552486 L267.608926,108.552486 L267.608926,108.552486 Z M274.516272,110.227432 C272.164742,116.521704 275.7493,123.864477 281.877818,125.809362 C288.006336,127.754248 295.69519,123.909538 298.033435,117.650827 C300.384966,111.356555 297.245931,102.922082 291.08374,100.96651 C284.955222,99.021625 276.867803,103.93316 274.516272,110.227432 L274.516272,110.227432 L274.516272,110.227432 Z" id="Marker-10" fill="#F68B03" transform="translate(286.021522, 104.931429) rotate(158.000000) translate(-286.021522, -104.931429) "></path>
                <path d="M21.7198848,136.925184 C24.3374694,129.382395 44.2058568,112.968376 44.2058568,112.968376 C44.2058568,112.968376 49.6775287,138.039697 47.0599441,145.582486 C44.4514483,153.099084 36.6667909,157.265323 29.6637199,154.872759 C22.660649,152.480196 19.111389,144.441783 21.7198848,136.925184 L21.7198848,136.925184 L21.7198848,136.925184 Z M26.4453231,138.158766 C24.8365993,142.794438 27.2888591,148.202322 31.481487,149.634711 C35.674115,151.067101 40.9341964,148.235509 42.5338314,143.626027 C44.1425553,138.990354 41.9950858,132.778444 37.7794214,131.338184 C33.5867934,129.905794 28.054047,133.523093 26.4453231,138.158766 L26.4453231,138.158766 L26.4453231,138.158766 Z" id="Marker-11" fill="#4A4A4A" transform="translate(34.316268, 134.258309) rotate(158.000000) translate(-34.316268, -134.258309) "></path>
                <path d="M77.0008939,140.719792 C80.8271134,130.478265 109.869465,108.191466 109.869465,108.191466 C109.869465,108.191466 117.867608,142.233067 114.041389,152.474595 C110.228455,162.680561 98.8493352,168.33744 88.6126893,165.08884 C78.3760435,161.84024 73.1879598,150.925759 77.0008939,140.719792 L77.0008939,140.719792 L77.0008939,140.719792 Z M83.9082406,142.394738 C81.5567098,148.68901 85.141268,156.031783 91.2697862,157.976668 C97.3983045,159.921554 105.087158,156.076845 107.425404,149.818133 C109.776934,143.523861 106.637899,135.089388 100.475708,133.133817 C94.3471899,131.188931 86.2597714,136.100466 83.9082406,142.394738 L83.9082406,142.394738 L83.9082406,142.394738 Z" id="Marker-12" fill="#4A90E2" transform="translate(95.413490, 137.098735) rotate(158.000000) translate(-95.413490, -137.098735) "></path>
                <path d="M115.325769,144.223064 C117.658607,137.500796 135.365667,122.872331 135.365667,122.872331 C135.365667,122.872331 140.242118,145.216337 137.90928,151.938605 C135.584542,158.637531 128.646717,162.350557 122.405456,160.218262 C116.164195,158.085967 113.001031,150.92199 115.325769,144.223064 L115.325769,144.223064 L115.325769,144.223064 Z M119.537164,145.322454 C118.10344,149.453847 120.288938,154.273449 124.025482,155.550021 C127.762027,156.826592 132.449905,154.303027 133.875528,150.194974 C135.309251,146.063581 133.395388,140.527415 129.638313,139.24383 C125.901769,137.967259 120.970887,141.19106 119.537164,145.322454 L119.537164,145.322454 L119.537164,145.322454 Z" id="Marker-13" fill="#4A4A4A" transform="translate(126.551890, 141.846297) rotate(158.000000) translate(-126.551890, -141.846297) "></path>
                <path d="M11.414384,63.2985707 C15.2406036,53.0570434 44.2829548,30.7702444 44.2829548,30.7702444 C44.2829548,30.7702444 52.2810984,64.8118455 48.4548789,75.0533728 C44.6419448,85.2593392 33.2628253,90.9162181 23.0261795,87.6676182 C12.7895336,84.4190184 7.60144998,73.5045371 11.414384,63.2985707 L11.414384,63.2985707 L11.414384,63.2985707 Z M18.3217308,64.9735162 C15.9702,71.2677882 19.5547582,78.610561 25.6832764,80.5554465 C31.8117946,82.5003319 39.5006486,78.6556228 41.8388939,72.3969117 C44.1904246,66.1026397 41.0513897,57.6681664 34.8891983,55.7125948 C28.76068,53.7677093 20.6732615,58.6792443 18.3217308,64.9735162 L18.3217308,64.9735162 L18.3217308,64.9735162 Z" id="Marker-14" fill="#4A4A4A" transform="translate(29.826980, 59.677513) rotate(158.000000) translate(-29.826980, -59.677513) "></path>
            </g>
            <g id="Markers-4" transform="translate(348.000000, 32.000000)" sketch:type="MSShapeGroup">
                <path d="M123.131938,33.5526224 C123.64867,53.0982649 90.4222624,109.510597 90.4222624,109.510597 C90.4222624,109.510597 54.3538317,58.4218942 53.8371001,38.8762516 C53.3221628,19.3984758 68.4009583,2.39495097 87.5515317,0.923693432 C106.702105,-0.547564104 122.617001,14.0748466 123.131938,33.5526224 L123.131938,33.5526224 L123.131938,33.5526224 Z M110.556201,35.4028235 C110.238627,23.3903974 99.375519,13.6162377 87.910373,14.4970563 C76.4452271,15.377875 66.2714907,26.9042157 66.5872711,38.8487751 C66.9048457,50.8612012 77.7605787,62.7440718 89.2887199,61.8584135 C100.753866,60.9775949 110.873776,47.4152497 110.556201,35.4028235 L110.556201,35.4028235 L110.556201,35.4028235 Z" id="Marker-2" fill="#87C145"></path>
                <path d="M176.062338,100.913918 C176.351273,111.843024 157.772456,143.38644 157.772456,143.38644 C157.772456,143.38644 137.604498,114.819775 137.315563,103.890669 C137.027632,92.9995114 145.459064,83.4918514 156.167263,82.6691858 C166.875463,81.8465201 175.774407,90.0227605 176.062338,100.913918 L176.062338,100.913918 L176.062338,100.913918 Z M169.030512,101.948473 C168.852938,95.2316269 162.778742,89.7663256 156.367912,90.2588426 C149.957082,90.7513595 144.268354,97.1964072 144.444926,103.875305 C144.6225,110.592151 150.692572,117.236556 157.138626,116.741333 C163.549456,116.248816 169.208087,108.665319 169.030512,101.948473 L169.030512,101.948473 L169.030512,101.948473 Z" id="Marker-4" fill="#9822C0"></path>
                <path d="M132.385109,114.997571 C132.674044,125.926677 114.095226,157.470093 114.095226,157.470093 C114.095226,157.470093 93.9272684,128.903428 93.6383337,117.974322 C93.3504023,107.083164 101.781834,97.5755045 112.490034,96.7528388 C123.198233,95.9301731 132.097177,104.106414 132.385109,114.997571 L132.385109,114.997571 L132.385109,114.997571 Z M125.353283,116.032126 C125.175708,109.31528 119.101513,103.849979 112.690683,104.342496 C106.279853,104.835013 100.591125,111.28006 100.767696,117.958958 C100.94527,124.675804 107.015342,131.320209 113.461397,130.824986 C119.872227,130.332469 125.530857,122.748973 125.353283,116.032126 L125.353283,116.032126 L125.353283,116.032126 Z" id="Marker-7" fill="#4A4A4A"></path>
                <path d="M136.571276,55.2692196 C138.904114,48.546952 156.611174,33.9184868 156.611174,33.9184868 C156.611174,33.9184868 161.487625,56.2624932 159.154787,62.9847608 C156.830049,69.6836872 149.892224,73.3967128 143.650963,71.2644178 C137.409702,69.1321228 134.246538,61.968146 136.571276,55.2692196 L136.571276,55.2692196 L136.571276,55.2692196 Z M140.782671,56.3686096 C139.348947,60.5000032 141.534445,65.3196051 145.270989,66.5961764 C149.007534,67.8727478 153.695412,65.3491824 155.121035,61.24113 C156.554758,57.1097364 154.640895,51.5735712 150.88382,50.2899858 C147.147276,49.0134144 142.216394,52.237216 140.782671,56.3686096 L140.782671,56.3686096 L140.782671,56.3686096 Z" id="Marker-8" fill="#4A4A4A" transform="translate(147.797397, 52.892453) rotate(158.000000) translate(-147.797397, -52.892453) "></path>
                <path d="M58.5762462,113.545551 C60.9090842,106.823283 78.6161441,92.1948181 78.6161441,92.1948181 C78.6161441,92.1948181 83.4925953,114.538824 81.1597573,121.261092 C78.8350195,127.960018 71.8971945,131.673044 65.6559333,129.540749 C59.414672,127.408454 56.2515084,120.244477 58.5762462,113.545551 L58.5762462,113.545551 L58.5762462,113.545551 Z M62.7876409,114.644941 C61.3539175,118.776334 63.5394151,123.595936 67.2759596,124.872508 C71.0125042,126.149079 75.7003821,123.625514 77.1260053,119.517461 C78.5597286,115.386068 76.6458657,109.849903 72.8887906,108.566317 C69.1522461,107.289746 64.2213642,110.513547 62.7876409,114.644941 L62.7876409,114.644941 L62.7876409,114.644941 Z" id="Marker-9" fill="#F68B03" transform="translate(69.802367, 111.168784) rotate(158.000000) translate(-69.802367, -111.168784) "></path>
                <path d="M7.93910517,121.544073 C10.2719431,114.821805 27.979003,100.19334 27.979003,100.19334 C27.979003,100.19334 32.8554542,122.537346 30.5226163,129.259614 C28.1978785,135.95854 21.2600535,139.671566 15.0187922,137.539271 C8.77753097,135.406976 5.61436736,128.242999 7.93910517,121.544073 L7.93910517,121.544073 L7.93910517,121.544073 Z M12.1504998,122.643463 C10.7167765,126.774856 12.902274,131.594458 16.6388186,132.871029 C20.3753631,134.147601 25.0632411,131.624035 26.4888643,127.515983 C27.9225876,123.384589 26.0087246,117.848424 22.2516496,116.564839 C18.515105,115.288267 13.5842231,118.512069 12.1504998,122.643463 L12.1504998,122.643463 L12.1504998,122.643463 Z" id="Marker-11" fill="#4990E2" transform="translate(19.165226, 119.167306) rotate(158.000000) translate(-19.165226, -119.167306) "></path>
                <path d="M28.5874037,151.957148 C32.4136232,141.715621 61.4559744,119.428822 61.4559744,119.428822 C61.4559744,119.428822 69.4541181,153.470423 65.6278985,163.71195 C61.8149644,173.917917 50.435845,179.574796 40.1991991,176.326196 C29.9625533,173.077596 24.7744696,162.163115 28.5874037,151.957148 L28.5874037,151.957148 L28.5874037,151.957148 Z M35.4947504,153.632094 C33.1432196,159.926366 36.7277778,167.269139 42.856296,169.214024 C48.9848143,171.158909 56.6736682,167.3142 59.0119135,161.055489 C61.3634443,154.761217 58.2244093,146.326744 52.0622179,144.371172 C45.9336997,142.426287 37.8462812,147.337822 35.4947504,153.632094 L35.4947504,153.632094 L35.4947504,153.632094 Z" id="Marker-12" fill="#4A4A4A" transform="translate(47.000000, 148.336090) rotate(158.000000) translate(-47.000000, -148.336090) "></path>
                <path d="M138.027987,70.5909215 C138.383224,77.697596 127.445443,97.8940542 127.445443,97.8940542 C127.445443,97.8940542 114.553864,79.0038029 114.198628,71.8971285 C113.844625,64.81513 118.886341,58.7735176 125.471909,58.4125295 C132.057478,58.0515414 137.673985,63.5089231 138.027987,70.5909215 L138.027987,70.5909215 L138.027987,70.5909215 Z M133.711412,71.1492011 C133.493089,66.7815574 129.661277,63.1316022 125.718601,63.3477201 C121.775925,63.563838 118.374745,67.659757 118.591833,72.0027247 C118.810156,76.3703684 122.658542,80.7864656 126.622881,80.5691603 C130.565557,80.3530424 133.929734,75.5168448 133.711412,71.1492011 L133.711412,71.1492011 L133.711412,71.1492011 Z" id="Marker-13" fill="#4990E2"></path>
                <path d="M59.1936424,65.9146151 C59.4825771,76.8437209 40.9037598,108.387137 40.9037598,108.387137 C40.9037598,108.387137 20.7358019,79.8204717 20.4468673,68.8913659 C20.1589359,58.0002084 28.5903676,48.4925484 39.2985673,47.6698828 C50.0067669,46.8472171 58.905711,55.0234575 59.1936424,65.9146151 L59.1936424,65.9146151 L59.1936424,65.9146151 Z M52.1618164,66.9491702 C51.984242,60.2323239 45.9100464,54.7670226 39.4992163,55.2595396 C33.0883863,55.7520565 27.3996584,62.1971042 27.5762296,68.8760022 C27.753804,75.5928485 33.8238758,82.2372527 40.2699303,81.7420296 C46.6807603,81.2495126 52.3393908,73.6660165 52.1618164,66.9491702 L52.1618164,66.9491702 L52.1618164,66.9491702 Z" id="Marker-14" fill="#4A4A4A"></path>
            </g>
        </g>
    </g>
</svg>